<svg width="31" height="24" viewBox="0 0 31 24" fill="none" xmlns="http://www.w3.org/2000/svg">
<path d="M19.8917 0C19.5844 0.549678 19.3105 1.11735 19.0716 1.69994C16.7239 1.32912 14.3325 1.32912 11.9849 1.69994C11.7459 1.11735 11.4721 0.549678 11.1648 0C8.95333 0.377387 6.80351 1.05325 4.77435 2.00901C1.14579 7.23908 -0.499786 13.5886 0.132391 19.9202C2.49706 21.6956 5.15106 23.0497 7.9773 23.9227C8.62085 23.0737 9.1952 22.1745 9.69482 21.2337C8.77274 20.8942 7.88647 20.4645 7.04891 19.9511C7.27863 19.7984 7.49593 19.6279 7.69878 19.4411C10.1412 20.6161 12.8173 21.2262 15.5282 21.2262C18.2392 21.2262 20.9153 20.6161 23.3577 19.4411C23.5743 19.6265 23.7909 19.7965 24.0075 19.9511C23.1654 20.4605 22.28 20.8949 21.3616 21.2492C21.8405 22.2113 22.3995 23.1314 23.0327 24C25.8554 23.13 28.5048 21.7755 30.8622 19.9974C31.5095 13.6647 29.8626 7.31001 26.2202 2.08628C24.2138 1.11073 22.0853 0.409021 19.8917 0V0ZM10.3911 16.3039C9.61682 16.2484 8.89415 15.8955 8.37484 15.3192C7.85552 14.7429 7.57994 13.988 7.60594 13.2131C7.57602 12.4372 7.85024 11.6802 8.37034 11.1031C8.89043 10.5259 9.61539 10.1741 10.3911 10.1223C11.1669 10.1741 11.8918 10.5259 12.4119 11.1031C12.932 11.6802 13.2062 12.4372 13.1763 13.2131C13.2062 13.9891 12.932 14.746 12.4119 15.3232C11.8918 15.9004 11.1669 16.2522 10.3911 16.3039V16.3039ZM20.6653 16.3039C19.891 16.2484 19.1684 15.8955 18.649 15.3192C18.1297 14.7429 17.8541 13.988 17.8801 13.2131C17.8502 12.4372 18.1244 11.6802 18.6445 11.1031C19.1646 10.5259 19.8896 10.1741 20.6653 10.1223C21.4425 10.1702 22.1698 10.5209 22.6907 11.099C23.2116 11.677 23.4844 12.4362 23.4505 13.2131C23.4844 13.9901 23.2116 14.7493 22.6907 15.3273C22.1698 15.9054 21.4425 16.2561 20.6653 16.3039V16.3039Z" fill="white"/>
</svg>
