<svg width="27" height="24" viewBox="0 0 27 24" fill="none" xmlns="http://www.w3.org/2000/svg">
<path d="M26.719 4.71259L22.9873 8.47508C22.2459 17.2125 14.9556 24 6.24423 24C4.45254 24 2.96976 23.7125 1.84531 23.15C0.943286 22.6875 0.57259 22.2 0.473738 22.05C0.39195 21.9243 0.339248 21.7816 0.319558 21.6325C0.299868 21.4834 0.313698 21.3317 0.360018 21.1887C0.406338 21.0457 0.483954 20.9151 0.587082 20.8067C0.69021 20.6983 0.816192 20.6148 0.955643 20.5625C0.980356 20.55 3.89649 19.425 5.78704 17.2625C4.61458 16.418 3.58406 15.3882 2.73498 14.2125C1.04214 11.8876 -0.749557 7.85008 0.32546 1.82511C0.359254 1.64599 0.440239 1.47943 0.55986 1.34302C0.679482 1.20661 0.833299 1.10541 1.00507 1.05011C1.17738 0.993034 1.3619 0.984999 1.53843 1.02689C1.71496 1.06878 1.87669 1.15897 2.00595 1.28761C2.04302 1.33761 6.15774 5.43759 11.1868 6.76258V6.00009C11.1917 5.20723 11.3509 4.42311 11.6553 3.69248C11.9597 2.96186 12.4034 2.29905 12.9611 1.7419C13.5187 1.18475 14.1794 0.744166 14.9053 0.44531C15.6313 0.146454 16.4084 -0.00482268 17.1921 0.00011719C18.2208 0.0149586 19.2281 0.299093 20.1159 0.824838C21.0038 1.35058 21.7419 2.10001 22.2583 3.0001H26.0147C26.2098 2.99949 26.4008 3.05732 26.5635 3.16632C26.7262 3.27532 26.8534 3.4306 26.929 3.6126C27.0003 3.79731 27.0183 3.99864 26.9812 4.19331C26.944 4.38797 26.8531 4.56801 26.719 4.71259Z" fill="white"/>
</svg>
